/* XPM */
static char *_695ec93babc4afbf884a5d306ab1c65jwdhUfwRdPBV5U72[] = {
/* columns rows colors chars-per-pixel */
"16 20 90 1 ",
"  c None",
". c #2D0706",
"X c #300705",
"o c #3A0206",
"O c #380904",
"+ c #3C0A05",
"@ c #3E0A06",
"# c #400A05",
"$ c #430A05",
"% c #440B04",
"& c #450B05",
"* c #470B05",
"= c #460C05",
"- c #470E06",
"; c #4D0B05",
": c #4B0D05",
"> c #4C0D04",
", c #530D03",
"< c #560E03",
"1 c #510C04",
"2 c #530E04",
"3 c #530D06",
"4 c #520D07",
"5 c #540D04",
"6 c #540D05",
"7 c #550D05",
"8 c #560D04",
"9 c #570D04",
"0 c #560D05",
"q c #560E04",
"w c #560F04",
"e c #550E06",
"r c #5C0F03",
"t c #5D0D05",
"y c #5F0F06",
"u c #640303",
"i c #690202",
"p c #680104",
"a c #630E03",
"s c #660B04",
"d c #600F04",
"f c #620E04",
"g c #640F05",
"h c #680C04",
"j c #7D0101",
"k c #790405",
"l c #7C0404",
"z c #730904",
"x c #621003",
"c c #661003",
"v c #6F1103",
"b c #681005",
"n c #6A1104",
"m c #6F1104",
"M c #6F1105",
"N c #6D1205",
"B c #6E1204",
"V c #810502",
"C c #880203",
"Z c #880303",
"A c #8C0203",
"S c #8F0202",
"D c #8E0204",
"F c #850D02",
"G c #880C02",
"H c #960202",
"J c #9B0101",
"K c #980103",
"L c #9B0202",
"P c #9A0203",
"I c #9E0202",
"U c #930A02",
"Y c #970902",
"T c #980A01",
"R c #9D0A02",
"E c #A20103",
"W c #A80202",
"Q c #A90203",
"! c #AF0202",
"~ c #AF0203",
"^ c #B10202",
"/ c #B70001",
"( c #B60102",
") c #BC0101",
"_ c #C30203",
"` c #C40100",
"' c #CF0000",
"] c #D00000",
"[ c #D10000",
"{ c #D10001",
/* pixels */
"                ",
"                ",
"      kZDp      ",
"    o)]]]]/     ",
"    /]]]]]]~    ",
"   u]]]]]]]'i   ",
"   j`KW^~WK_l   ",
"   ZK]]]]]]KH   ",
"   SzGYRTUFaE   ",
"   ShmmmmmmxI   ",
"   sdmmmmmmcV   ",
"   00mmmmmmn1   ",
"   11mmmmmmn>   ",
"   00mmvmmmr0   ",
"   1m0<<00,d0   ",
"   :mmt$$0vm;   ",
"   &mmg  tmm-   ",
"   -mm0  0mmO   ",
"    ++.  X&&    ",
"                "
};
