/* XPM */
static char *_12b54c0776d4126aa552a6e47055bc875Up72tKOZjsQJOm[] = {
/* columns rows colors chars-per-pixel */
"20 20 120 2 ",
"   c None",
".  c #2B0905",
"X  c #3A0202",
"o  c #310B07",
"O  c #360A04",
"+  c #380A03",
"@  c #3D0902",
"#  c #390905",
"$  c #3B0B04",
"%  c #3B0B05",
"&  c #3D0904",
"*  c #400C04",
"=  c #410C05",
"-  c #400E07",
";  c #470D06",
":  c #4A0B03",
">  c #490904",
",  c #490C04",
"<  c #490D05",
"1  c #560405",
"2  c #5F0303",
"3  c #5F0604",
"4  c #560D03",
"5  c #550D04",
"6  c #560F05",
"7  c #590709",
"8  c #600303",
"9  c #630303",
"0  c #6D0304",
"q  c #6D0605",
"w  c #6E0508",
"e  c #750305",
"r  c #720406",
"t  c #760505",
"y  c #7F0305",
"u  c #7D0E02",
"i  c #661003",
"p  c #661103",
"a  c #601104",
"s  c #621004",
"d  c #651104",
"f  c #671104",
"g  c #671205",
"h  c #6B1102",
"j  c #6E1102",
"k  c #6F1103",
"l  c #6E1302",
"z  c #6F1203",
"x  c #6B1204",
"c  c #6E1104",
"v  c #6F1104",
"b  c #6D1304",
"n  c #6E1204",
"m  c #701203",
"M  c #6A2732",
"N  c #563543",
"B  c #583543",
"V  c #593643",
"C  c #583544",
"Z  c #5B3444",
"A  c #523947",
"S  c #543846",
"D  c #6C3A46",
"F  c #7A3D43",
"G  c #564152",
"H  c #5F6D79",
"J  c #820203",
"K  c #860303",
"L  c #8D0C02",
"P  c #8C0D03",
"I  c #900203",
"U  c #910203",
"Y  c #9B0A03",
"T  c #9C0A03",
"R  c #87181E",
"E  c #991014",
"W  c #A40701",
"Q  c #AF0502",
"!  c #B70503",
"~  c #B40507",
"^  c #B90300",
"/  c #BF0001",
"(  c #B80304",
")  c #B90406",
"_  c #B2070A",
"`  c #801920",
"'  c #C70100",
"]  c #C20407",
"[  c #CA0100",
"{  c #CA0101",
"}  c #CF0000",
"|  c #CF0001",
" . c #CF0101",
".. c #CE0102",
"X. c #D00000",
"o. c #D10000",
"O. c #D00001",
"+. c #D00101",
"@. c #834048",
"#. c #607C8A",
"$. c #847A81",
"%. c #5F8390",
"&. c #61838D",
"*. c #4E86A1",
"=. c #528DA8",
"-. c #5D9EB7",
";. c #6191A0",
":. c #5EA1B9",
">. c #60A3BB",
",. c #61A5BD",
"<. c #62A5BE",
"1. c #61A6BF",
"2. c #83DBEF",
"3. c #81DCEF",
"4. c #81DDF0",
"5. c #82DCF0",
"6. c #82DDF0",
"7. c #9DE3F0",
"8. c #D2F3EF",
"9. c #D9F5ED",
/* pixels */
"                                        ",
"              7 J I I K X               ",
"            y +.+.+.+.+.} t             ",
"          e } } +.} } +.+.+.w           ",
"          / ~ @.H %.&.$.F ) (           ",
"        1 _ ;.6.6.6.7.8.9.#.]           ",
"        9 D 3.6.6.6.6.6.6.2.` 2         ",
"        0 G *.>.<.<.<.:.-.=.M r         ",
"        q R V C V N S A A C E 9         ",
"        3 } } } +.} } +.+.+.} >         ",
"        ; [ +.+.+.+.+.+.+.+.Q &         ",
"        * Y +.+.+.+.+.+.+.} u #         ",
"        # z W +.+.+.+.+.+.T z O         ",
"        + z c L ! ' [ ^ L z z o         ",
"        . m z z m c c z z z z           ",
"          z z z x : < h z z c           ",
"          c z z 5     s z z d           ",
"          s z z <     5 z z 4           ",
"          * d d #     @ p p *           ",
"                                        "
};
