/* XPM */
static char *d9ef93d572394625ef2dcbc28abfc844RJDVZN0hfPtbw8pA[] = {
/* columns rows colors chars-per-pixel */
"16 20 176 2 ",
"   c None",
".  c black",
"X  c #010000",
"o  c #000100",
"O  c #000101",
"+  c #010101",
"@  c #020000",
"#  c #020101",
"$  c #020200",
"%  c #030200",
"&  c #020002",
"*  c #030202",
"=  c #060001",
"-  c #060101",
";  c #070101",
":  c #060303",
">  c #060404",
",  c #080101",
"<  c #090002",
"1  c #080103",
"2  c #0A0105",
"3  c #080205",
"4  c #090205",
"5  c #0C0004",
"6  c #0D0005",
"7  c #0C0105",
"8  c #0C0106",
"9  c #0F0106",
"0  c #0D0308",
"q  c #060808",
"w  c #09090A",
"e  c #0A0D0F",
"r  c #14030A",
"t  c #17030B",
"y  c #11040A",
"u  c #13040A",
"i  c #140809",
"p  c #1F0E10",
"a  c #151A1C",
"s  c #151A1D",
"d  c #240303",
"f  c #2A0404",
"g  c #2B0505",
"h  c #260C0C",
"j  c #330405",
"k  c #320708",
"l  c #2B0413",
"z  c #2D0314",
"x  c #2F0415",
"c  c #3B0219",
"v  c #3A061B",
"b  c #2A1011",
"n  c #20292C",
"m  c #222C30",
"M  c #222D33",
"N  c #420505",
"B  c #4D0708",
"V  c #540405",
"C  c #550707",
"Z  c #630706",
"A  c #6A0909",
"S  c #730908",
"D  c #780A0B",
"F  c #530525",
"G  c #530526",
"H  c #570527",
"J  c #580627",
"K  c #5A0328",
"L  c #5F062C",
"P  c #60052B",
"I  c #60062B",
"U  c #61052C",
"Y  c #66062E",
"T  c #69062F",
"R  c #700432",
"E  c #780636",
"W  c #7A0737",
"Q  c #7D0838",
"!  c #2C3C43",
"~  c #314047",
"^  c #3A4D55",
"/  c #465D66",
"(  c #485D67",
")  c #475F68",
"_  c #49606A",
"`  c #4B646D",
"'  c #840908",
"]  c #860A0A",
"[  c #930B0B",
"{  c #9F0B0B",
"}  c #B70C0C",
"|  c #83053A",
" . c #82063A",
".. c #8E063F",
"X. c #A10823",
"o. c #B0093E",
"O. c #B6093F",
"+. c #BA0A3D",
"@. c #C30C0C",
"#. c #CA0E0D",
"$. c #CC0E0E",
"%. c #CF0F0E",
"&. c #D40F0E",
"*. c #D90E0D",
"=. c #DB0E0D",
"-. c #D1100E",
";. c #D61110",
":. c #E00E0E",
">. c #E90F0E",
",. c #F90F0E",
"<. c #E2110F",
"1. c #ED100F",
"2. c #FA100E",
"3. c #FA100F",
"4. c #FA110F",
"5. c #E40D1E",
"6. c #E40D1F",
"7. c #E60E1E",
"8. c #EA0E19",
"9. c #EB0F1A",
"0. c #FB0F10",
"q. c #F31211",
"w. c #F61110",
"e. c #F71110",
"r. c #F71111",
"t. c #F41211",
"y. c #F31014",
"u. c #F91110",
"i. c #F81011",
"p. c #FB1110",
"a. c #C80C27",
"s. c #DE0E24",
"d. c #D30C2B",
"f. c #C10C36",
"g. c #900742",
"h. c #950742",
"j. c #960743",
"k. c #990744",
"l. c #9A0745",
"z. c #A00642",
"x. c #AC0847",
"c. c #A10748",
"v. c #A7074A",
"b. c #A8074B",
"n. c #A9074B",
"m. c #A8074C",
"M. c #A9074C",
"N. c #A00849",
"B. c #A2084A",
"V. c #A5094A",
"C. c #A5094B",
"Z. c #A6084A",
"A. c #A6084B",
"S. c #A7084B",
"D. c #A6094B",
"F. c #A8084B",
"G. c #B10744",
"H. c #5A7781",
"J. c #5E808C",
"K. c #638390",
"L. c #6B8C99",
"P. c #7CA3B3",
"I. c #7EA4B3",
"U. c #8BB6C7",
"Y. c #91BCCD",
"T. c #90BCCE",
"R. c #93C0D1",
"E. c #9AC6D7",
"W. c #9BC7D8",
"Q. c #9AC8D8",
"!. c #9BC9DA",
"~. c #9AC9DB",
"^. c #9EC8D8",
"/. c #9CC9DB",
"(. c #9AC9DC",
"). c #9BCADC",
/* pixels */
"        $ - d f - $             ",
"      , S <.u.2.:.{ N           ",
"    $ D @.-.e.2.2.2.e.k         ",
"    $ a m n h Z =.2.2.] $       ",
"  a J.    ^.^.K.b >.2.} $       ",
"$ L.        W.!.( ] 2.&.$       ",
"w !.(.E.!.(.(.R.) C 2.a.- [ j   ",
"$ ` I.U.T.T.P.H.~ A 2.f.2 q.#.$ ",
"  q m ^ _ ` / ! p =.2.+.y z.o.$ ",
"  $ B f > e i C $.,.u.x.r k.C., ",
"  $ ;.2.e.1.e.u.0.2.5.v.y k.C.6 ",
"  $ $.2.2.2.2.2.2.y.O.C.6 B.C., ",
"  $ X.s.5.8.8.5.d.G.b.C.6 C.B.$ ",
"  $ Q b.b.m.m.b.b.m.b.C.6 C.| $ ",
"  $ R b.b.b.b.b.b.b.b.c.6 C.H   ",
"  $ T b...x G I F.b.b.j.2 l 2   ",
"  $ I b.b.G $ - j.b.b.| $       ",
"    J b.b.K   $ g.b.b.W $       ",
"    r Y W c   $ L b.m.U $       ",
"      $ $       $ z v 0         "
};
