/* XPM */
static char *b60bea9c62fe4a43cc24f6aaac12ed81Q5Wqf0QsImQvKDhE[] = {
/* columns rows colors chars-per-pixel */
"16 20 179 2 ",
"   c None",
".  c black",
"X  c #010100",
"o  c #010001",
"O  c #010101",
"+  c #020000",
"@  c #020101",
"#  c #030101",
"$  c #000200",
"%  c #020200",
"&  c #010002",
"*  c #020002",
"=  c #000202",
"-  c #010303",
";  c #020202",
":  c #060101",
">  c #070101",
",  c #020305",
"<  c #030607",
"1  c #050707",
"2  c #0A0101",
"3  c #080002",
"4  c #080102",
"5  c #090103",
"6  c #090004",
"7  c #0B0105",
"8  c #090205",
"9  c #0C0004",
"0  c #0C0105",
"q  c #0E0105",
"w  c #0E0106",
"e  c #090507",
"r  c #0B0D0E",
"t  c #110107",
"y  c #110406",
"u  c #120309",
"i  c #14020A",
"p  c #13040A",
"a  c #14040A",
"s  c #1F0E10",
"d  c #141B1D",
"f  c #141B1F",
"g  c #161C1E",
"h  c #250303",
"j  c #230403",
"k  c #280203",
"l  c #280505",
"z  c #360405",
"x  c #2A0313",
"c  c #2A0413",
"v  c #240F10",
"b  c #330317",
"n  c #330417",
"m  c #3D041C",
"M  c #2C1618",
"N  c #263034",
"B  c #283338",
"V  c #420506",
"C  c #530606",
"Z  c #570A09",
"A  c #55090B",
"S  c #6B0809",
"D  c #6E0A0B",
"F  c #750807",
"G  c #79090A",
"H  c #530425",
"J  c #540526",
"K  c #560526",
"L  c #5A0327",
"P  c #580527",
"I  c #5E0429",
"U  c #5E042A",
"Y  c #62042B",
"T  c #61052C",
"R  c #64062D",
"E  c #68052F",
"W  c #740634",
"Q  c #750634",
"!  c #7A0837",
"~  c #7D0738",
"^  c #313F46",
"/  c #36454C",
"(  c #3C5057",
")  c #485F68",
"_  c #495F69",
"`  c #49606A",
"'  c #4A646C",
"]  c #506670",
"[  c #526B74",
"{  c #54717C",
"}  c #890B0A",
"|  c #900C0C",
" . c #900D0C",
".. c #980A0A",
"X. c #B80E0E",
"o. c #84063A",
"O. c #8C063F",
"+. c #87083D",
"@. c #A30820",
"#. c #B9093C",
"$. c #B9083E",
"%. c #C20C0B",
"&. c #C70E0D",
"*. c #CD0E0E",
"=. c #D10E0E",
"-. c #D60E0C",
";. c #DA0F0E",
":. c #D9100E",
">. c #DD100E",
",. c #D51010",
"<. c #D51112",
"1. c #E10E0C",
"2. c #FB0F0F",
"3. c #E6100F",
"4. c #EE100F",
"5. c #F9110E",
"6. c #F9100F",
"7. c #F8110F",
"8. c #F9110F",
"9. c #FA100E",
"0. c #FA100F",
"q. c #E70E1D",
"w. c #EA0D1A",
"e. c #EB0F1A",
"r. c #F30F14",
"t. c #F21110",
"y. c #F31212",
"u. c #F61110",
"i. c #F71110",
"p. c #F81110",
"a. c #F91011",
"s. c #FA1010",
"d. c #C70C28",
"f. c #DC0D26",
"g. c #D50B28",
"h. c #C30D36",
"j. c #E40E20",
"k. c #E50E20",
"l. c #910741",
"z. c #960742",
"x. c #960743",
"c. c #990744",
"v. c #980745",
"b. c #9E0747",
"n. c #A10742",
"m. c #AF0942",
"M. c #A10749",
"N. c #A6074A",
"B. c #A7074B",
"V. c #A7074C",
"C. c #A9064B",
"Z. c #A8074B",
"A. c #A9074B",
"S. c #A8064C",
"D. c #A8074C",
"F. c #A10849",
"G. c #A5084A",
"H. c #A5094B",
"J. c #A6084A",
"K. c #A6084B",
"L. c #A7084B",
"P. c #A9084B",
"I. c #AC0848",
"U. c #B30844",
"Y. c #7596A2",
"T. c #7597A3",
"R. c #7D9CA8",
"E. c #7BA1B0",
"W. c #7EA5B4",
"Q. c #8AB6C8",
"!. c #8FBACB",
"~. c #90BDCE",
"^. c #93C1D2",
"/. c #99C7D9",
"(. c #9AC7D9",
"). c #9BC8D9",
"_. c #99C8DB",
"`. c #9AC8DA",
"'. c #9AC9DB",
/* pixels */
"            . 4 k l . .         ",
"          V ..3.0.0.;.F >       ",
"        h i.0.0.0.i.:.%.G ,     ",
"      . } 0.0.>.D v f N g .     ",
"      . X.0.1.M T.`.(.    R.f   ",
"      . =.0.| ] `.`.        T.. ",
"  z | 4 d.0.C ` ^.`.(.(.`.`.(.< ",
". &.y.6 h.0.S / { W.Q.~.!.E.[ . ",
". m.n.u #.p.-.s ^ _ ' _ ( B 1   ",
"4 H.c.p I.p.0.,.Z y r e j Z .   ",
"6 H.c.a H.j.p.2.0.p.4.y.0.,..   ",
"4 H.M.0 H.#.r.p.0.0.0.0.0.*..   ",
". b.H.0 H.V.U.g.j.e.e.q.f.@..   ",
". o.H.0 H.Z.S.B.Z.S.Z.S.Z.~ .   ",
"  K B.0 F.Z.Z.Z.Z.Z.Z.B.Z.W .   ",
"  > x 6 x.Z.Z.Z.T H n O.Z.E .   ",
"      . +.Z.Z.x.. . K P.Z.I .   ",
"      . W Z.Z.l..   L Z.Z.P     ",
"      . R Z.Z.I     m ! Y i     ",
"        t b c .     . . .       "
};
