/* XPM */
static char *test[] = {
/* columns rows colors chars-per-pixel */
"9 12 101 2",
"   c #7E3C42",
".  c #516872",
"X  c #658B98",
"o  c #6C919F",
"O  c #6D94A2",
"+  c #75A1B0",
"@  c #972B2F",
"#  c #982A2E",
"$  c #BA001A",
"%  c #B41C1F",
"&  c #AD0023",
"*  c #AE0022",
"=  c #AF0022",
"-  c #AF0423",
";  c #AC0D2C",
":  c #B20020",
">  c #B90025",
",  c #BE0022",
"<  c #BD0026",
"1  c #BD0027",
"2  c #BE0026",
"3  c #B90228",
"4  c #BA0228",
"5  c #B8062B",
"6  c #B71939",
"7  c #A32326",
"8  c #A22629",
"9  c #B72124",
"0  c #B7223F",
"q  c #BD2437",
"w  c #B72F4B",
"e  c #B53B54",
"r  c #BA4C62",
"t  c #CB0010",
"y  c #CB0011",
"u  c #CB0012",
"i  c #CD001D",
"p  c #CD021C",
"a  c #CE001D",
"s  c #D6040D",
"d  c #DD1D20",
"f  c #D1353A",
"g  c #D0393D",
"h  c #E5000D",
"j  c #E7000E",
"k  c #EC0303",
"l  c #EE0005",
"z  c #E9000D",
"x  c #ED0009",
"c  c #EA0909",
"v  c #F10001",
"b  c #F30203",
"n  c #F20006",
"m  c #F30007",
"M  c #F50204",
"N  c #F70004",
"B  c #FA0000",
"V  c #FB0000",
"C  c red",
"Z  c #E62426",
"A  c #E13737",
"S  c #C44653",
"D  c #DF5858",
"F  c #C86176",
"G  c #C9657A",
"H  c #C37787",
"J  c #C87280",
"K  c #8399A3",
"L  c #8BA2B1",
"P  c #95BECD",
"I  c #B2C6CE",
"U  c #C18084",
"Y  c #C78F90",
"T  c #CA8C99",
"R  c #CB8D99",
"E  c #CD929F",
"W  c #D98D8D",
"Q  c #DF8D8D",
"!  c #DA8D90",
"~  c #CC95A1",
"^  c #E0B2B3",
"/  c #DBCCCF",
"(  c #C8E3ED",
")  c #CEE2EA",
"_  c #DBE2E6",
"`  c #D4EBF3",
"'  c #E0C7CA",
"]  c #E4D0D5",
"[  c #E6D4D8",
"{  c #E9D6D6",
"}  c #E7E6E6",
"|  c #E5E7E8",
" . c #E9E3E4",
".. c #E9EEF1",
"X. c #E1F1F6",
"o. c #F1F3F3",
"O. c gray95",
"+. c #F1F4F4",
"@. c #F0F7F7",
"#. c #F3F4F4",
"$. c #F3F5F4",
/* pixels */
"O.O.^ A k c D { $.",
"#./ Z B d g g U | ",
"$.G b 9 L ) .._ I ",
"W q k   + ( X.` P ",
"s $ n 8 . X O O K ",
"u : n b % # @ 7 Y ",
"u : z C C C C B Q ",
"u & a N C C C M ! ",
"u * < a h x h a R ",
"S ; < 5 w 0 < 3 R ",
"} r , 6 / ~ > 3 E ",
"$.H - e  .[ F G ] "
};
